<svg width="38" height="38" viewBox="0 0 38 38" fill="none" xmlns="http://www.w3.org/2000/svg">
<path d="M13.801 37.8109L13.0448 31.7612C12.6352 31.6037 12.2492 31.4146 11.8868 31.194C11.5245 30.9735 11.17 30.7371 10.8234 30.4851L5.199 32.8483L0 23.8682L4.86816 20.1816C4.83665 19.961 4.8209 19.7483 4.8209 19.5435V18.2674C4.8209 18.0626 4.83665 17.8499 4.86816 17.6294L0 13.9428L5.199 4.96269L10.8234 7.32587C11.17 7.0738 11.5323 6.83748 11.9104 6.61692C12.2886 6.39635 12.6667 6.2073 13.0448 6.04975L13.801 0H24.199L24.9552 6.04975C25.3648 6.2073 25.7508 6.39635 26.1132 6.61692C26.4755 6.83748 26.83 7.0738 27.1766 7.32587L32.801 4.96269L38 13.9428L33.1318 17.6294C33.1633 17.8499 33.1791 18.0626 33.1791 18.2674V19.5435C33.1791 19.7483 33.1476 19.961 33.0846 20.1816L37.9527 23.8682L32.7537 32.8483L27.1766 30.4851C26.83 30.7371 26.4677 30.9735 26.0896 31.194C25.7114 31.4146 25.3333 31.6037 24.9552 31.7612L24.199 37.8109H13.801ZM19.0945 25.5224C20.9221 25.5224 22.4818 24.8765 23.7736 23.5846C25.0655 22.2927 25.7114 20.733 25.7114 18.9055C25.7114 17.0779 25.0655 15.5182 23.7736 14.2264C22.4818 12.9345 20.9221 12.2886 19.0945 12.2886C17.2355 12.2886 15.6679 12.9345 14.3918 14.2264C13.1157 15.5182 12.4776 17.0779 12.4776 18.9055C12.4776 20.733 13.1157 22.2927 14.3918 23.5846C15.6679 24.8765 17.2355 25.5224 19.0945 25.5224Z" fill="#65558F"/>
</svg>
